<?xml version="1.0" encoding="UTF-8" standalone="no"?><!DOCTYPE svg PUBLIC "-//W3C//DTD SVG 1.1//EN" "http://www.w3.org/Graphics/SVG/1.1/DTD/svg11.dtd"><svg width="100%" height="100%" viewBox="0 0 24 24" version="1.1" xmlns="http://www.w3.org/2000/svg" xmlns:xlink="http://www.w3.org/1999/xlink" xml:space="preserve" xmlns:serif="http://www.serif.com/" style="fill-rule:evenodd;clip-rule:evenodd;stroke-linejoin:round;stroke-miterlimit:2;"><rect x="0" y="0" width="24" height="24" style="fill:none;"/><path d="M19.154,0.878c0.187,0.675 0.376,1.2 0.582,1.623c0.411,0.852 0.91,1.35 1.764,1.761c0.424,0.204 0.948,0.391 1.623,0.581c1.176,0.331 1.164,2.001 -0.016,2.316c-0.552,0.146 -1.09,0.339 -1.608,0.577c-0.852,0.41 -1.352,0.908 -1.756,1.743c-0.242,0.522 -0.438,1.066 -0.583,1.623c-0.309,1.185 -1.989,1.2 -2.318,0.018c-0.187,-0.678 -0.375,-1.203 -0.581,-1.625c-0.41,-0.852 -0.91,-1.349 -1.75,-1.752c-0.53,-0.248 -1.082,-0.446 -1.649,-0.594c-0.024,-0.006 -0.049,-0.014 -0.072,-0.024l-0.052,-0.02l-0.054,-0.024l-0.059,-0.03l-0.042,-0.024c-0.021,-0.011 -0.04,-0.023 -0.059,-0.036l-0.038,-0.028l-0.052,-0.041l-0.04,-0.033l-0.043,-0.042l-0.041,-0.042l-0.033,-0.04l-0.042,-0.052l-0.027,-0.038c-0.014,-0.019 -0.027,-0.038 -0.038,-0.059l-0.024,-0.042l-0.03,-0.06l-0.024,-0.053l-0.02,-0.051c-0.01,-0.023 -0.018,-0.048 -0.024,-0.072l-0.012,-0.041c-0.012,-0.038 -0.021,-0.078 -0.024,-0.118l-0.008,-0.078l-0.006,-0.042l0,-0.06c-0.002,-0.033 -0.001,-0.068 0.004,-0.102c0.001,-0.037 0.007,-0.074 0.016,-0.111c0.004,-0.042 0.014,-0.084 0.028,-0.124c0.006,-0.024 0.015,-0.049 0.024,-0.072l0.021,-0.053l0.024,-0.054l0.03,-0.058l0.024,-0.042c0.011,-0.021 0.023,-0.04 0.036,-0.059l0.027,-0.039l0.041,-0.051l0.034,-0.04l0.042,-0.043l0.042,-0.041c0.012,-0.012 0.025,-0.023 0.039,-0.033l0.052,-0.042l0.038,-0.027c0.02,-0.014 0.039,-0.027 0.059,-0.038l0.042,-0.024l0.06,-0.03l0.053,-0.024l0.052,-0.021c0.022,-0.009 0.048,-0.018 0.072,-0.024l0.032,-0.009c0.551,-0.145 1.088,-0.339 1.607,-0.576c0.852,-0.411 1.352,-0.909 1.764,-1.759c0.204,-0.425 0.392,-0.951 0.58,-1.627c0.326,-1.171 1.988,-1.171 2.313,0l0,0.002Zm-8.398,4.806c0.176,0.641 0.377,1.271 0.604,1.889c1.027,2.736 2.334,4.035 5.076,5.064c0.567,0.212 1.195,0.414 1.885,0.607c1.172,0.326 1.169,1.987 -0.002,2.312c-0.638,0.177 -1.266,0.378 -1.882,0.605c-2.745,1.03 -4.051,2.328 -5.075,5.059c-0.229,0.623 -0.432,1.256 -0.606,1.895c-0.321,1.18 -1.994,1.18 -2.316,0c-0.174,-0.638 -0.375,-1.268 -0.603,-1.889c-1.027,-2.737 -2.333,-4.035 -5.072,-5.062c-0.628,-0.232 -1.267,-0.437 -1.912,-0.616c-0.022,-0.006 -0.044,-0.013 -0.065,-0.022l-0.053,-0.02l-0.052,-0.024c-0.02,-0.008 -0.039,-0.018 -0.057,-0.029l-0.043,-0.024c-0.021,-0.011 -0.04,-0.023 -0.058,-0.036l-0.038,-0.029l-0.053,-0.04l-0.04,-0.035l-0.044,-0.041l-0.041,-0.044l-0.036,-0.04l-0.04,-0.053l-0.027,-0.038c-0.013,-0.018 -0.025,-0.037 -0.036,-0.058l-0.025,-0.043c-0.011,-0.018 -0.021,-0.037 -0.029,-0.058l-0.024,-0.051l-0.021,-0.053c-0.008,-0.022 -0.015,-0.043 -0.021,-0.065c-0.006,-0.015 -0.01,-0.031 -0.012,-0.047c-0.007,-0.022 -0.013,-0.046 -0.017,-0.07l-0.008,-0.048l-0.009,-0.068l-0.003,-0.052l-0.003,-0.06l0,-0.06c0,-0.018 0.001,-0.036 0.005,-0.053c0.001,-0.024 0.004,-0.047 0.008,-0.069l0.009,-0.048c0.003,-0.031 0.011,-0.061 0.02,-0.091l0.009,-0.025c0.006,-0.022 0.013,-0.043 0.021,-0.065l0.021,-0.053l0.024,-0.051c0.008,-0.021 0.018,-0.04 0.028,-0.058l0.024,-0.043c0.011,-0.02 0.023,-0.04 0.036,-0.058l0.029,-0.038l0.041,-0.053l0.035,-0.039l0.041,-0.045l0.044,-0.041l0.04,-0.036l0.052,-0.039l0.039,-0.028c0.018,-0.013 0.037,-0.025 0.057,-0.036l0.044,-0.025c0.018,-0.011 0.037,-0.02 0.057,-0.029l0.052,-0.024l0.053,-0.02c0.021,-0.009 0.043,-0.016 0.064,-0.022l0.026,-0.008c0.634,-0.175 1.262,-0.378 1.881,-0.605c2.745,-1.03 4.05,-2.328 5.075,-5.059c0.229,-0.623 0.432,-1.256 0.606,-1.895c0.322,-1.18 1.996,-1.18 2.317,-0Z" style="fill:url(#_Linear1);"/><defs><linearGradient id="_Linear1" x1="0" y1="0" x2="1" y2="0" gradientUnits="userSpaceOnUse" gradientTransform="matrix(24.8886,-23.9386,23.9386,24.8886,-1.22627,23.7783)"><stop offset="0" style="stop-color:#3958a8;stop-opacity:1"/><stop offset="0.47" style="stop-color:#6db0bd;stop-opacity:1"/><stop offset="1" style="stop-color:#7ccac3;stop-opacity:1"/></linearGradient></defs></svg>