<?xml version="1.0" encoding="UTF-8" standalone="no"?><!DOCTYPE svg PUBLIC "-//W3C//DTD SVG 1.1//EN" "http://www.w3.org/Graphics/SVG/1.1/DTD/svg11.dtd"><svg width="100%" height="100%" viewBox="0 0 24 24" version="1.1" xmlns="http://www.w3.org/2000/svg" xmlns:xlink="http://www.w3.org/1999/xlink" xml:space="preserve" xmlns:serif="http://www.serif.com/" style="fill-rule:evenodd;clip-rule:evenodd;stroke-linejoin:round;stroke-miterlimit:2;"><rect x="0" y="0" width="24" height="24" style="fill:none;fill-rule:nonzero;"/><path d="M17.963,2.733c0.156,0.563 0.313,1 0.485,1.353c0.342,0.71 0.758,1.125 1.47,1.467c0.353,0.17 0.79,0.326 1.352,0.484c0.98,0.276 0.97,1.668 -0.013,1.93c-0.46,0.122 -0.908,0.283 -1.34,0.481c-0.71,0.342 -1.127,0.757 -1.463,1.453c-0.202,0.435 -0.365,0.888 -0.486,1.352c-0.258,0.988 -1.658,1 -1.932,0.015c-0.156,-0.565 -0.312,-1.002 -0.484,-1.354c-0.342,-0.71 -0.758,-1.124 -1.458,-1.46c-0.442,-0.207 -0.902,-0.372 -1.374,-0.495c-0.02,-0.005 -0.041,-0.012 -0.06,-0.02l-0.044,-0.017l-0.045,-0.02l-0.049,-0.025l-0.035,-0.02c-0.017,-0.009 -0.033,-0.019 -0.049,-0.03l-0.032,-0.023l-0.043,-0.034l-0.033,-0.028l-0.036,-0.035l-0.034,-0.035l-0.028,-0.033l-0.035,-0.043l-0.022,-0.032c-0.012,-0.016 -0.023,-0.032 -0.032,-0.049l-0.02,-0.035l-0.025,-0.05l-0.02,-0.044l-0.017,-0.043c-0.008,-0.019 -0.015,-0.04 -0.02,-0.06l-0.01,-0.034c-0.01,-0.032 -0.017,-0.065 -0.02,-0.098l-0.006,-0.065l-0.005,-0.035l0,-0.05c-0.002,-0.028 -0.001,-0.057 0.003,-0.085c0.001,-0.031 0.006,-0.062 0.013,-0.093c0.004,-0.035 0.012,-0.07 0.024,-0.103c0.005,-0.02 0.012,-0.041 0.02,-0.06l0.017,-0.044l0.02,-0.045l0.025,-0.049l0.02,-0.035c0.009,-0.017 0.019,-0.033 0.03,-0.049l0.023,-0.032l0.034,-0.043l0.028,-0.033l0.035,-0.036l0.035,-0.034c0.01,-0.01 0.021,-0.019 0.033,-0.028l0.043,-0.035l0.032,-0.022c0.016,-0.012 0.032,-0.023 0.049,-0.032l0.035,-0.02l0.05,-0.025l0.044,-0.02l0.043,-0.017c0.019,-0.008 0.04,-0.015 0.06,-0.02l0.027,-0.008c0.459,-0.121 0.907,-0.282 1.339,-0.48c0.71,-0.342 1.127,-0.757 1.47,-1.466c0.17,-0.354 0.327,-0.792 0.483,-1.355c0.272,-0.976 1.657,-0.976 1.928,0Zm-6.998,4.005c0.146,0.534 0.314,1.059 0.503,1.574c0.856,2.28 1.945,3.363 4.23,4.22c0.472,0.177 0.996,0.345 1.571,0.506c0.976,0.272 0.974,1.656 -0.002,1.927c-0.532,0.147 -1.055,0.315 -1.568,0.504c-2.288,0.858 -3.376,1.94 -4.229,4.216c-0.191,0.519 -0.36,1.046 -0.505,1.579c-0.268,0.983 -1.662,0.983 -1.93,-0c-0.145,-0.532 -0.313,-1.057 -0.503,-1.574c-0.856,-2.281 -1.944,-3.363 -4.226,-4.219c-0.524,-0.193 -1.056,-0.364 -1.594,-0.513c-0.018,-0.005 -0.036,-0.011 -0.054,-0.018l-0.044,-0.017l-0.043,-0.02c-0.017,-0.007 -0.033,-0.015 -0.048,-0.024l-0.036,-0.02c-0.017,-0.009 -0.033,-0.019 -0.048,-0.03l-0.032,-0.024l-0.044,-0.034l-0.033,-0.029l-0.037,-0.034l-0.034,-0.037l-0.03,-0.033l-0.033,-0.044l-0.023,-0.032c-0.011,-0.015 -0.021,-0.031 -0.03,-0.048l-0.021,-0.036c-0.009,-0.015 -0.017,-0.031 -0.024,-0.048l-0.02,-0.043l-0.017,-0.044c-0.007,-0.018 -0.013,-0.036 -0.018,-0.054c-0.005,-0.013 -0.008,-0.026 -0.01,-0.039c-0.006,-0.019 -0.011,-0.039 -0.014,-0.059l-0.007,-0.04l-0.007,-0.056l-0.003,-0.044l-0.002,-0.05l0,-0.05c0,-0.015 0.001,-0.03 0.004,-0.044c0.001,-0.02 0.003,-0.039 0.007,-0.057l0.007,-0.04c0.003,-0.026 0.009,-0.051 0.017,-0.076l0.007,-0.021c0.005,-0.018 0.011,-0.036 0.018,-0.054l0.017,-0.044l0.02,-0.043c0.007,-0.017 0.015,-0.033 0.024,-0.048l0.02,-0.036c0.009,-0.017 0.019,-0.033 0.03,-0.048l0.024,-0.032l0.034,-0.044l0.029,-0.033l0.034,-0.037l0.037,-0.034l0.033,-0.03l0.044,-0.033l0.032,-0.023c0.015,-0.011 0.031,-0.021 0.048,-0.03l0.036,-0.021c0.015,-0.009 0.031,-0.017 0.048,-0.024l0.043,-0.02l0.044,-0.017c0.018,-0.007 0.036,-0.013 0.054,-0.018l0.021,-0.007c0.529,-0.146 1.052,-0.315 1.568,-0.504c2.287,-0.858 3.375,-1.94 4.229,-4.216c0.191,-0.519 0.36,-1.046 0.505,-1.579c0.268,-0.983 1.663,-0.983 1.931,-0Z" style="fill:url(#_Linear1);"/><defs><linearGradient id="_Linear1" x1="0" y1="0" x2="1" y2="0" gradientUnits="userSpaceOnUse" gradientTransform="matrix(20.7401,-19.9485,19.9485,20.7401,0.979589,21.8165)"><stop offset="0" style="stop-color:#3958a8;stop-opacity:1"/><stop offset="1" style="stop-color:#90d8f2;stop-opacity:1"/></linearGradient></defs></svg>