<?xml version="1.0" encoding="UTF-8" standalone="no"?><!DOCTYPE svg PUBLIC "-//W3C//DTD SVG 1.1//EN" "http://www.w3.org/Graphics/SVG/1.1/DTD/svg11.dtd"><svg width="100%" height="100%" viewBox="0 0 128 128" version="1.1" xmlns="http://www.w3.org/2000/svg" xmlns:xlink="http://www.w3.org/1999/xlink" xml:space="preserve" xmlns:serif="http://www.serif.com/" style="fill-rule:evenodd;clip-rule:evenodd;stroke-linejoin:round;stroke-miterlimit:2;"><rect id="ArtBoard1" x="0" y="0" width="128" height="128" style="fill:none;"/><clipPath id="_clip1"><rect x="0" y="0" width="128" height="128"/></clipPath><g clip-path="url(#_clip1)"><path d="M119.559,52.39c2.944,-8.716 1.93,-18.265 -2.776,-26.193c-7.078,-12.16 -21.307,-18.416 -35.204,-15.472c-6.182,-6.872 -15.064,-10.78 -24.375,-10.724c-14.205,-0.032 -26.808,8.992 -31.178,22.328c-9.126,1.844 -17.002,7.48 -21.611,15.468c-7.131,12.129 -5.505,27.417 4.021,37.817c-2.943,8.716 -1.93,18.265 2.777,26.193c7.078,12.16 21.307,18.416 35.203,15.472c6.178,6.872 15.064,10.78 24.376,10.72c14.213,0.036 26.82,-8.996 31.19,-22.344c9.125,-1.844 17.002,-7.48 21.611,-15.468c7.123,-12.129 5.493,-27.405 -4.029,-37.805l-0.005,0.008Zm-48.759,67.245c-5.687,0.008 -11.197,-1.956 -15.563,-5.552c0.199,-0.104 0.544,-0.292 0.767,-0.428l25.831,-14.72c1.321,-0.74 2.132,-2.128 2.124,-3.628l-0,-35.933l10.917,6.22c0.117,0.056 0.194,0.168 0.211,0.296l-0,29.757c-0.017,13.232 -10.877,23.96 -24.287,23.988Zm-52.229,-22.012c-2.85,-4.856 -3.876,-10.549 -2.899,-16.073c0.191,0.112 0.527,0.316 0.766,0.452l25.831,14.721c1.31,0.756 2.931,0.756 4.245,-0l31.534,-17.969l0,12.441c0.008,0.128 -0.052,0.252 -0.154,0.332l-26.11,14.876c-11.631,6.608 -26.484,2.68 -33.209,-8.78l-0.004,-0Zm-6.799,-55.638c2.838,-4.864 7.318,-8.584 12.652,-10.516c0,0.22 -0.012,0.608 -0.012,0.88l0,29.445c-0.008,1.496 0.803,2.884 2.12,3.624l31.535,17.964l-10.917,6.221c-0.109,0.072 -0.247,0.084 -0.369,0.032l-26.115,-14.889c-11.606,-6.632 -15.586,-21.284 -8.898,-32.757l0.004,-0.004Zm89.695,20.597l-31.534,-17.968l10.917,-6.217c0.109,-0.072 0.247,-0.084 0.368,-0.032l26.115,14.877c11.627,6.628 15.611,21.304 8.894,32.776c-2.842,4.857 -7.317,8.577 -12.648,10.513l0,-30.325c0.012,-1.496 -0.794,-2.88 -2.108,-3.624l-0.004,-0Zm10.865,-16.136c-0.191,-0.116 -0.527,-0.316 -0.767,-0.452l-25.831,-14.721c-1.309,-0.756 -2.931,-0.756 -4.244,0l-31.535,17.969l0,-12.441c-0.008,-0.128 0.053,-0.252 0.154,-0.332l26.111,-14.864c11.63,-6.62 26.5,-2.68 33.205,8.8c2.834,4.848 3.859,10.524 2.898,16.041l0.009,-0Zm-68.311,22.172l-10.921,-6.22c-0.118,-0.056 -0.195,-0.168 -0.211,-0.296l-0,-29.757c0.008,-13.248 10.9,-23.984 24.327,-23.976c5.679,-0 11.176,1.968 15.542,5.552c-0.199,0.104 -0.539,0.292 -0.766,0.428l-25.831,14.72c-1.322,0.74 -2.132,2.124 -2.124,3.624l-0.016,35.917l-0,0.008Zm5.93,-12.616l14.047,-8.004l14.046,8l0,16.004l-14.046,8l-14.047,-8l0,-16Z" style="fill-rule:nonzero;"/></g></svg>