<?xml version="1.0" encoding="UTF-8" standalone="no"?><!DOCTYPE svg PUBLIC "-//W3C//DTD SVG 1.1//EN" "http://www.w3.org/Graphics/SVG/1.1/DTD/svg11.dtd"><svg width="100%" height="100%" viewBox="0 0 128 128" version="1.1" xmlns="http://www.w3.org/2000/svg" xmlns:xlink="http://www.w3.org/1999/xlink" xml:space="preserve" xmlns:serif="http://www.serif.com/" style="fill-rule:evenodd;clip-rule:evenodd;stroke-linejoin:round;stroke-miterlimit:2;"><rect id="ArtBoard1" x="0" y="0" width="128" height="128" style="fill:none;"/><clipPath id="_clip1"><rect x="0" y="0" width="128" height="128"/></clipPath><g clip-path="url(#_clip1)"><path d="M94.816,117.706c-6.069,6.439 -14.701,10.317 -24.024,10.293c-9.312,0.06 -18.198,-3.848 -24.376,-10.72c-13.896,2.944 -28.125,-3.312 -35.203,-15.472c-4.707,-7.928 -5.72,-17.477 -2.777,-26.193c-9.526,-10.4 -11.152,-25.688 -4.021,-37.817c4.609,-7.988 12.485,-13.624 21.611,-15.468c4.37,-13.336 16.973,-22.36 31.178,-22.328c9.311,-0.056 18.193,3.852 24.375,10.724c13.897,-2.944 28.126,3.312 35.204,15.472c4.706,7.928 5.72,17.477 2.776,26.193l0.005,-0.008c9.522,10.4 11.152,25.676 4.029,37.805c-1.495,2.59 -3.333,4.933 -5.446,6.98c-1.821,-1.822 -3.967,-3.968 -5.983,-5.986c1.575,-1.519 2.946,-3.253 4.063,-5.163c6.717,-11.472 2.733,-26.148 -8.894,-32.776l-26.115,-14.877c-0.121,-0.052 -0.259,-0.04 -0.368,0.032l-10.917,6.217l17.293,9.853c-2.046,-0.491 -4.177,-0.751 -6.365,-0.751c-1.941,-0 -3.87,0.205 -5.757,0.607l-11.106,-6.325l-14.047,8.004l0,16l3.879,2.209c-0.576,2.008 -0.923,4.077 -1.032,6.17l-26.266,-14.963c-1.317,-0.74 -2.128,-2.128 -2.12,-3.624l0,-29.445c0,-0.272 0.012,-0.66 0.012,-0.88c-5.334,1.932 -9.814,5.652 -12.652,10.516l-0.004,0.004c-6.688,11.473 -2.708,26.125 8.898,32.757l26.115,14.889c0.122,0.052 0.26,0.04 0.369,-0.032l5.964,-3.399c0.329,2.023 0.882,3.974 1.631,5.828l-8.231,4.691c-1.314,0.756 -2.935,0.756 -4.245,-0l-25.831,-14.721c-0.239,-0.136 -0.575,-0.34 -0.766,-0.452c-0.977,5.524 0.049,11.217 2.899,16.073l0.004,-0c6.725,11.46 21.578,15.388 33.209,8.78l9.059,-5.162c2.178,2.185 4.716,4.01 7.512,5.375l-12.351,7.039c-0.223,0.136 -0.568,0.324 -0.767,0.428c4.366,3.596 9.876,5.56 15.563,5.552c7.15,-0.015 13.575,-3.071 18.018,-7.928l5.998,5.999Zm-50.795,-49.088l-0,-0.008l0.016,-35.917c-0.008,-1.5 0.802,-2.884 2.124,-3.624l25.831,-14.72c0.227,-0.136 0.567,-0.324 0.766,-0.428c-4.366,-3.584 -9.863,-5.552 -15.542,-5.552c-13.427,-0.008 -24.319,10.728 -24.327,23.976l-0,29.757c0.016,0.128 0.093,0.24 0.211,0.296l10.921,6.22Zm68.303,-22.177c0.96,-5.515 -0.066,-11.189 -2.899,-16.036c-6.705,-11.48 -21.575,-15.42 -33.205,-8.8l-26.111,14.864c-0.101,0.08 -0.162,0.204 -0.154,0.332l0,12.441l31.535,-17.969c1.313,-0.756 2.935,-0.756 4.244,0l25.831,14.721c0.236,0.134 0.567,0.331 0.759,0.447Z"/><path d="M74.679,81.544c0.447,0.448 1.054,0.699 1.686,0.699c0.694,-0 1.651,-0 2.538,-0c0.632,-0 1.239,-0.251 1.686,-0.699c0.447,-0.447 0.698,-1.053 0.698,-1.686c0,-0.886 0,-1.844 0,-2.537c0,-0.633 -0.251,-1.239 -0.698,-1.686c-1.785,-1.785 -6.579,-6.579 -9.505,-9.506c-0.548,-0.547 -0.795,-1.326 -0.665,-2.089c0.131,-0.763 0.624,-1.415 1.323,-1.749c0.025,-0.012 0.04,-0.019 0.04,-0.019c2.835,-1.354 5.937,-2.056 9.079,-2.056c11.557,-0 21.068,9.51 21.068,21.067c-0,2.083 -0.309,4.149 -0.912,6.131c-0.265,0.844 -0.039,1.766 0.587,2.392c3.762,3.773 16.438,16.449 16.448,16.459c-0,0 -0,0 -0,0c1.689,1.689 2.639,3.983 2.639,6.371c-0,4.943 -4.067,9.01 -9.01,9.01c-2.389,0 -4.682,-0.95 -6.371,-2.639c-0,0 -12.686,-12.686 -16.454,-16.454c-0.628,-0.627 -1.552,-0.854 -2.4,-0.588c-1.979,0.61 -4.045,0.919 -6.128,0.919c-11.558,-0 -21.068,-9.51 -21.068,-21.068c0,-3.141 0.703,-6.244 2.057,-9.079c0,0 0.007,-0.014 0.019,-0.04c0.334,-0.698 0.986,-1.191 1.748,-1.322c0.763,-0.131 1.542,0.117 2.09,0.664c2.926,2.927 7.72,7.721 9.505,9.505Zm-0.302,5.53c-0.642,-0 -1.253,-0.253 -1.708,-0.708c0,0 -3.551,-3.551 -5.97,-5.97c-0.433,-0.433 -1.082,-0.566 -1.65,-0.337c-0.568,0.228 -0.944,0.774 -0.955,1.386c-0.001,0.124 -0.003,0.248 -0.003,0.371c0,8.907 7.33,16.237 16.237,16.237c2.421,-0 4.812,-0.542 6.997,-1.585c-0,-0 0.274,-0.131 0.59,-0.282c0.57,-0.273 1.25,-0.156 1.697,0.291c3.611,3.611 19.114,19.114 19.114,19.114c0.783,0.784 1.847,1.224 2.955,1.224c2.292,0 4.179,-1.886 4.179,-4.179c-0,-1.108 -0.441,-2.171 -1.224,-2.955c-0,0 -15.465,-15.465 -19.101,-19.101c-0.455,-0.454 -0.574,-1.146 -0.296,-1.727c0.147,-0.309 0.273,-0.573 0.273,-0.573c1.044,-2.185 1.585,-4.576 1.585,-6.997c0,-8.907 -7.329,-16.236 -16.236,-16.236c-0.142,-0 -0.284,0.002 -0.426,0.005c-0.601,0.014 -1.137,0.385 -1.361,0.943c-0.224,0.559 -0.093,1.197 0.332,1.623c2.109,2.11 5.158,5.159 6.278,6.28c0.278,0.278 0.435,0.655 0.435,1.048c-0,1.907 -0,7.768 -0,10.585c-0,0.409 -0.163,0.801 -0.452,1.091c-0.29,0.289 -0.682,0.452 -1.092,0.452c-3.186,-0 -10.198,-0 -10.198,-0Z" style="fill:#080605;"/></g></svg>